<?xml version="1.0" encoding="UTF-8" standalone="no"?>
<!DOCTYPE svg PUBLIC "-//W3C//DTD SVG 1.1//EN" "http://www.w3.org/Graphics/SVG/1.1/DTD/svg11.dtd">
<svg width="100%" height="100%" viewBox="0 0 692 51" version="1.1" xmlns="http://www.w3.org/2000/svg" xmlns:xlink="http://www.w3.org/1999/xlink" xml:space="preserve" xmlns:serif="http://www.serif.com/" style="fill-rule:evenodd;clip-rule:evenodd;stroke-linejoin:round;stroke-miterlimit:2;">
    <g transform="matrix(1,0,0,1,-55.1462,-249.932)">
        <g transform="matrix(1,0,0,1,18,11)">
            <g transform="matrix(64,0,0,64,35.4822,288.596)">
                <path d="M0.717,-0.646C0.663,-0.701 0.569,-0.776 0.426,-0.776C0.209,-0.776 0.026,-0.605 0.026,-0.378C0.026,-0.149 0.212,0.018 0.426,0.018C0.566,0.018 0.667,-0.065 0.719,-0.122C0.708,-0.133 0.599,-0.244 0.587,-0.256C0.55,-0.209 0.492,-0.172 0.426,-0.172C0.312,-0.172 0.221,-0.268 0.221,-0.378C0.221,-0.494 0.315,-0.586 0.426,-0.586C0.513,-0.586 0.555,-0.536 0.584,-0.509C0.599,-0.524 0.708,-0.637 0.717,-0.646Z" style="fill-rule:nonzero;"/>
            </g>
            <g transform="matrix(64,0,0,64,114.074,288.596)">
                <path d="M0.649,-0.588L0.649,-0.754L0.064,-0.754L0.064,0L0.649,0L0.649,-0.166L0.26,-0.166L0.26,-0.296L0.602,-0.296L0.602,-0.462L0.26,-0.462L0.26,-0.588L0.649,-0.588Z" style="fill-rule:nonzero;"/>
            </g>
            <g transform="matrix(64,0,0,64,188.506,288.596)">
                <path d="M0.198,-0.754L-0.015,-0.754L0.302,0L0.454,0L0.776,-0.754L0.563,-0.754L0.38,-0.296L0.198,-0.754Z" style="fill-rule:nonzero;"/>
            </g>
            <g transform="matrix(64,0,0,64,271.066,288.596)">
                <rect x="0.064" y="-0.754" width="0.196" height="0.754" style="fill-rule:nonzero;"/>
            </g>
            <g transform="matrix(64,0,0,64,383.898,288.596)">
                <path d="M0.522,-0.754L0.522,-0.357C0.522,-0.259 0.515,-0.152 0.389,-0.152C0.263,-0.152 0.256,-0.259 0.256,-0.357L0.256,-0.754L0.06,-0.754L0.06,-0.33C0.06,-0.233 0.064,-0.137 0.139,-0.064C0.202,-0.002 0.301,0.02 0.389,0.02C0.477,0.02 0.576,-0.002 0.639,-0.064C0.714,-0.137 0.718,-0.233 0.718,-0.33L0.718,-0.754L0.522,-0.754Z" style="fill-rule:nonzero;"/>
            </g>
            <g transform="matrix(64,0,0,64,466.266,288.596)">
                <path d="M0.556,-0.712C0.489,-0.75 0.396,-0.774 0.32,-0.774C0.169,-0.774 0.06,-0.674 0.06,-0.521C0.06,-0.375 0.141,-0.343 0.264,-0.308C0.306,-0.296 0.383,-0.277 0.383,-0.222C0.383,-0.169 0.334,-0.146 0.288,-0.146C0.221,-0.146 0.163,-0.181 0.114,-0.224L0.03,-0.066C0.107,-0.012 0.2,0.02 0.295,0.02C0.371,0.02 0.45,-0.001 0.509,-0.051C0.569,-0.102 0.587,-0.179 0.587,-0.254C0.587,-0.376 0.506,-0.429 0.401,-0.46L0.351,-0.475C0.317,-0.485 0.264,-0.503 0.264,-0.547C0.264,-0.589 0.312,-0.61 0.348,-0.61C0.396,-0.61 0.442,-0.59 0.478,-0.56L0.556,-0.712Z" style="fill-rule:nonzero;"/>
            </g>
            <g transform="matrix(64,0,0,64,538.65,288.596)">
                <path d="M0.4,-0.588L0.605,-0.588L0.605,-0.754L0.003,-0.754L0.003,-0.588L0.204,-0.588L0.204,0L0.4,0L0.4,-0.588Z" style="fill-rule:nonzero;"/>
            </g>
            <g transform="matrix(64,0,0,64,610.074,288.596)">
                <path d="M0.649,-0.588L0.649,-0.754L0.064,-0.754L0.064,0L0.649,0L0.649,-0.166L0.26,-0.166L0.26,-0.296L0.602,-0.296L0.602,-0.462L0.26,-0.462L0.26,-0.588L0.649,-0.588Z" style="fill-rule:nonzero;"/>
            </g>
            <g transform="matrix(64,0,0,64,684.506,288.596)">
                <path d="M0.454,-0.309C0.561,-0.328 0.619,-0.418 0.619,-0.522C0.619,-0.683 0.506,-0.754 0.357,-0.754L0.064,-0.754L0.064,0L0.26,0L0.26,-0.29L0.262,-0.29L0.447,0L0.691,0L0.454,-0.309ZM0.26,-0.604L0.279,-0.604C0.343,-0.604 0.415,-0.592 0.415,-0.51C0.415,-0.428 0.343,-0.416 0.279,-0.416L0.26,-0.416L0.26,-0.604Z" style="fill-rule:nonzero;"/>
            </g>
        </g>
    </g>
</svg>
